<?xml version="1.0" encoding="utf-8" standalone="no"?>
<svg xmlns="http://www.w3.org/2000/svg" xmlns:xlink="http://www.w3.org/1999/xlink" width="64" height="64" version="1.1">
  <defs>
    <linearGradient id="fill-gradient-stops">
      <stop offset="0.00" stop-color="#000000" stop-opacity="1.00" />
      <stop offset="0.50" stop-color="#000000" stop-opacity="0.50" />
      <stop offset="1.00" stop-color="#ffffff" stop-opacity="0.00" />
    </linearGradient>
    <linearGradient id="stroke-gradient-stops">
      <stop offset="0.00" stop-color="#ffffff" stop-opacity="0.50" />
      <stop offset="0.50" stop-color="#ffffff" stop-opacity="0.25" />
      <stop offset="1.00" stop-color="#ffffff" stop-opacity="0.00" />
    </linearGradient>
    <clipPath id="clip-path" clipPathUnits="userSpaceOnUse">
      <rect fill="#ffff00" fill-opacity="1" x="0" y="0" width="64" height="32" />
    </clipPath>
    <linearGradient xlink:href="#fill-gradient-stops" id="fill-gradient" gradientUnits="userSpaceOnUse" x1="6.9390745" y1="13.284714" x2="58.418571" y2="30.783251" />
    <linearGradient xlink:href="#stroke-gradient-stops" id="stroke-gradient" gradientUnits="userSpaceOnUse" x1="0" y1="16.000004" x2="64" y2="16.000004" />
  </defs>
  <g transform="translate(0, -988.36218)">
    <path clip-path="url(#clip-path)" fill="url(#fill-gradient)" fill-opacity="1" fill-rule="nonzero" stroke="url(#stroke-gradient)" stroke-width="1" stroke-linejoin="round" stroke-miterlimit="4" stroke-opacity="1" transform="translate(0, 988.36218)" d="M 32,0 C 14.326888,0 0,14.326888 0,32 0,49.673112 14.326888,64 32,64 49.673112,64 64,49.673112 64,32 64,14.326888 49.673112,0 32,0 z m 0,4 C 47.463973,4 60,16.536027 60,32 60,47.463973 47.463973,60 32,60 16.536027,60 4,47.463973 4,32 4,16.536027 16.536027,4 32,4 z" />
  </g>
</svg>
